<svg width="24" height="25" viewBox="0 0 24 25" fill="none" xmlns="http://www.w3.org/2000/svg">
<path fill-rule="evenodd" clip-rule="evenodd" d="M11.3 3.78586C11.4869 3.60263 11.7382 3.5 12 3.5C12.2618 3.5 12.5131 3.60263 12.7 3.78586L18.7 9.78586L20.7 11.7859C20.8444 11.9784 20.9146 12.2166 20.8975 12.4567C20.8804 12.6969 20.7773 12.9228 20.6071 13.093C20.4369 13.2632 20.211 13.3663 19.9709 13.3833C19.7308 13.4004 19.4926 13.3303 19.3 13.1859L19 12.8859V19.4859C19 20.0163 18.7893 20.525 18.4142 20.9001C18.0391 21.2751 17.5304 21.4859 17 21.4859H14C13.7348 21.4859 13.4804 21.3805 13.2929 21.193C13.1054 21.0054 13 20.7511 13 20.4859V17.4859H11V20.4859C11 21.0859 10.6 21.4859 10 21.4859H7C6.46957 21.4859 5.96086 21.2751 5.58579 20.9001C5.21071 20.525 5 20.0163 5 19.4859V12.8859L4.7 13.1859C4.50743 13.3303 4.26922 13.4004 4.02911 13.3833C3.789 13.3663 3.5631 13.2632 3.39289 13.093C3.22268 12.9228 3.11958 12.6969 3.10252 12.4567C3.08545 12.2166 3.15557 11.9784 3.3 11.7859L5.3 9.78586L11.3 3.78586Z" fill="#E1E2E4"/>
</svg>
