<svg width="24" height="25" viewBox="0 0 24 25" fill="none" xmlns="http://www.w3.org/2000/svg">
<path d="M22.32 5.29999H1.68C0.7548 5.29999 0 6.05479 0 6.97999V18.02C0 18.9428 0.7548 19.7 1.6788 19.7H22.3188C23.2428 19.7 23.9988 18.9428 23.9988 18.02V6.97999C24 6.05479 23.2428 5.29999 22.32 5.29999ZM13.2 7.69999H15.6V10.1H13.2V7.69999ZM16.8 11.3V13.7H14.4V11.3H16.8ZM9.6 7.69999H12V10.1H9.6V7.69999ZM13.2 11.3V13.7H10.8V11.3H13.2ZM6 7.69999H8.4V10.1H6V7.69999ZM9.6 11.3V13.7H7.2V11.3H9.6ZM2.4 7.69999H4.8V10.1H2.4V7.69999ZM6 11.3V13.7H3.6V11.3H6ZM4.8 17.3H2.4V14.9H4.8V17.3ZM18 17.3H6V14.9H18V17.3ZM21.6 17.3H19.2V14.9H21.6V17.3ZM18 13.7V11.3H20.4V13.7H18ZM21.6 10.1H16.8V7.69999H21.6V10.1Z" fill="#8A9296"/>
</svg>
