<svg width="72" height="72" viewBox="0 0 72 72" fill="none" xmlns="http://www.w3.org/2000/svg">
<circle cx="36" cy="36" r="31.75" stroke="url(#paint0_linear_194_1338)" stroke-width="1.5"/>
<path fill-rule="evenodd" clip-rule="evenodd" d="M36 12C31.8022 11.9992 27.6777 13.0995 24.0381 15.1909C20.3985 17.2823 17.3711 20.2918 15.258 23.9189C13.145 27.546 12.0202 31.6639 11.996 35.8615C11.9717 40.0592 13.0489 44.1898 15.12 47.841C16.5198 46.0217 18.3193 44.5488 20.3792 43.5359C22.4392 42.5231 24.7045 41.9976 27 42H45C47.2955 41.9976 49.5608 42.5231 51.6207 43.5359C53.6807 44.5488 55.4801 46.0217 56.88 47.841C58.951 44.1898 60.0282 40.0592 60.004 35.8615C59.9797 31.6639 58.855 27.546 56.7419 23.9189C54.6289 20.2918 51.6014 17.2823 47.9618 15.1909C44.3222 13.0995 40.1977 11.9992 36 12ZM59.829 54.228C63.8401 48.9989 66.0097 42.5903 66 36C66 19.431 52.569 6 36 6C19.431 6 5.99997 19.431 5.99997 36C5.99007 42.5903 8.15969 48.999 12.171 54.228L12.156 54.282L13.221 55.521C16.0346 58.8105 19.5281 61.4508 23.4607 63.2599C27.3932 65.069 31.6713 66.0038 36 66C42.082 66.0112 48.0222 64.1637 53.025 60.705C55.1578 59.2314 57.0917 57.4891 58.779 55.521L59.844 54.282L59.829 54.228ZM36 18C33.613 18 31.3238 18.9482 29.636 20.636C27.9482 22.3239 27 24.6131 27 27C27 29.3869 27.9482 31.6761 29.636 33.364C31.3238 35.0518 33.613 36 36 36C38.3869 36 40.6761 35.0518 42.3639 33.364C44.0518 31.6761 45 29.3869 45 27C45 24.6131 44.0518 22.3239 42.3639 20.636C40.6761 18.9482 38.3869 18 36 18Z" fill="#E1E2E4"/>
<defs>
<linearGradient id="paint0_linear_194_1338" x1="9.5" y1="15" x2="60" y2="58.5" gradientUnits="userSpaceOnUse">
<stop stop-color="#41A3C7"/>
<stop offset="1" stop-color="#FF9700"/>
</linearGradient>
</defs>
</svg>
