<svg width="144" height="144" viewBox="0 0 144 144" fill="none" xmlns="http://www.w3.org/2000/svg">
<circle cx="72" cy="72" r="64.25" stroke="#565656" stroke-width="1.5"/>
<path fill-rule="evenodd" clip-rule="evenodd" d="M72.0001 24C63.6046 23.9985 55.3556 26.1989 48.0764 30.3818C40.7971 34.5646 34.7423 40.5835 30.5162 47.8377C26.2901 55.0919 24.0405 63.3277 23.9921 71.723C23.9436 80.1183 26.098 88.3795 30.2401 95.682C33.0397 92.0435 36.6387 89.0975 40.7586 87.0719C44.8785 85.0462 49.4091 83.9952 54.0001 84H90.0001C94.591 83.9952 99.1216 85.0462 103.242 87.0719C107.361 89.0975 110.96 92.0435 113.76 95.682C117.902 88.3795 120.057 80.1183 120.008 71.723C119.96 63.3277 117.71 55.0919 113.484 47.8377C109.258 40.5835 103.203 34.5646 95.9238 30.3818C88.6445 26.1989 80.3955 23.9985 72.0001 24ZM119.658 108.456C127.68 97.9978 132.019 85.1806 132 72C132 38.862 105.138 12 72.0001 12C38.8621 12 12.0001 38.862 12.0001 72C11.9803 85.1807 16.3195 97.998 24.3421 108.456L24.3121 108.564L26.4421 111.042C32.0694 117.621 39.0564 122.902 46.9215 126.52C54.7865 130.138 63.3427 132.008 72.0001 132C84.1641 132.022 96.0445 128.327 106.05 121.41C110.316 118.463 114.184 114.978 117.558 111.042L119.688 108.564L119.658 108.456ZM72.0001 36C67.2262 36 62.6478 37.8964 59.2721 41.2721C55.8965 44.6477 54.0001 49.2261 54.0001 54C54.0001 58.7739 55.8965 63.3523 59.2721 66.7279C62.6478 70.1036 67.2262 72 72.0001 72C76.774 72 81.3523 70.1036 84.728 66.7279C88.1037 63.3523 90.0001 58.7739 90.0001 54C90.0001 49.2261 88.1037 44.6477 84.728 41.2721C81.3523 37.8964 76.774 36 72.0001 36Z" fill="#E1E2E4"/>
</svg>
