<svg width="96" height="96" viewBox="0 0 96 96" fill="none" xmlns="http://www.w3.org/2000/svg">
<circle cx="47.9998" cy="48" r="42.5833" stroke="#70787D" stroke-width="1.5"/>
<path fill-rule="evenodd" clip-rule="evenodd" d="M48 16C42.4031 15.999 36.9037 17.466 32.0509 20.2545C27.1981 23.0431 23.1615 27.0557 20.3441 31.8918C17.5267 36.728 16.027 42.2185 15.9947 47.8153C15.9624 53.4122 17.3986 58.9197 20.16 63.788C22.0265 61.3623 24.4258 59.3983 27.1724 58.0479C29.919 56.6975 32.9394 55.9968 36 56H60C63.0607 55.9968 66.0811 56.6975 68.8277 58.0479C71.5743 59.3983 73.9736 61.3623 75.84 63.788C78.6014 58.9197 80.0377 53.4122 80.0054 47.8153C79.9731 42.2185 78.4734 36.728 75.656 31.8918C72.8386 27.0557 68.802 23.0431 63.9492 20.2545C59.0964 17.466 53.597 15.999 48 16ZM79.772 72.304C85.1202 65.3319 88.013 56.7871 88 48C88 25.908 70.092 8 48 8C25.908 8 8.00005 25.908 8.00005 48C7.98684 56.7871 10.8797 65.332 16.228 72.304L16.208 72.376L17.628 74.028C21.3796 78.414 26.0376 81.9344 31.281 84.3466C36.5244 86.7587 42.2284 88.0051 48 88C56.1094 88.0149 64.0296 85.5516 70.7 80.94C73.5438 78.9752 76.1223 76.6521 78.372 74.028L79.792 72.376L79.772 72.304ZM48 24C44.8174 24 41.7652 25.2643 39.5148 27.5147C37.2643 29.7652 36 32.8174 36 36C36 39.1826 37.2643 42.2348 39.5148 44.4853C41.7652 46.7357 44.8174 48 48 48C51.1826 48 54.2349 46.7357 56.4853 44.4853C58.7358 42.2348 60 39.1826 60 36C60 32.8174 58.7358 29.7652 56.4853 27.5147C54.2349 25.2643 51.1826 24 48 24Z" fill="#191C1E"/>
</svg>
