<svg width="24" height="25" viewBox="0 0 24 25" fill="none" xmlns="http://www.w3.org/2000/svg">
<path fill-rule="evenodd" clip-rule="evenodd" d="M11.3 3.78583C11.4869 3.6026 11.7382 3.49997 12 3.49997C12.2618 3.49997 12.5131 3.6026 12.7 3.78583L18.7 9.78583L20.7 11.7858C20.8444 11.9784 20.9146 12.2166 20.8975 12.4567C20.8804 12.6968 20.7773 12.9227 20.6071 13.0929C20.4369 13.2631 20.211 13.3662 19.9709 13.3833C19.7308 13.4004 19.4926 13.3303 19.3 13.1858L19 12.8858V19.4858C19 20.0163 18.7893 20.525 18.4142 20.9C18.0391 21.2751 17.5304 21.4858 17 21.4858H14C13.7348 21.4858 13.4804 21.3805 13.2929 21.1929C13.1054 21.0054 13 20.751 13 20.4858V17.4858H11V20.4858C11 21.0858 10.6 21.4858 10 21.4858H7C6.46957 21.4858 5.96086 21.2751 5.58579 20.9C5.21071 20.525 5 20.0163 5 19.4858V12.8858L4.7 13.1858C4.50743 13.3303 4.26922 13.4004 4.02911 13.3833C3.789 13.3662 3.5631 13.2631 3.39289 13.0929C3.22268 12.9227 3.11958 12.6968 3.10252 12.4567C3.08545 12.2166 3.15557 11.9784 3.3 11.7858L5.3 9.78583L11.3 3.78583Z" fill="#8A9296"/>
</svg>
